<svg xmlns="http://www.w3.org/2000/svg" viewBox="0 0 512 512"><path d="M298.667 149.333S256 128 256 85.333s42.667-64 42.667-64 42.666 21.334 42.666 64-42.666 64-42.666 64" style="fill:#8b2800"/><path d="M277.333 128S320 85.333 384 85.333 490.667 128 490.667 128 448 170.667 384 170.667 277.333 128 277.333 128z" style="fill:#993b17"/><circle cx="245.333" cy="288" r="202.667" style="fill:#ef7f00"/><path d="M325.02 101.646a201.923 201.923 0 0 1 16.313 79.687c0 111.93-90.737 202.667-202.666 202.667a201.923 201.923 0 0 1-79.688-16.313 202.686 202.686 0 0 0 186.354 122.98C357.263 490.667 448 399.93 448 288a202.686 202.686 0 0 0-122.98-186.354z" style="fill:#e76400"/><circle cx="362.667" cy="384" r="21.333" style="fill:#cc4900"/><circle cx="362.667" cy="170.667" r="21.333" style="fill:#cc4900"/><circle cx="373.333" cy="245.333" r="10.667" style="fill:#cc4900"/><circle cx="394.667" cy="309.333" r="10.667" style="fill:#cc4900"/><circle cx="298.667" cy="298.667" r="21.333" style="fill:#e76400"/><circle cx="330.667" cy="224" r="10.667" style="fill:#e76400"/><circle cx="245.333" cy="288" r="10.667" style="fill:#e76400"/><circle cx="181.333" cy="373.333" r="10.667" style="fill:#e76400"/><circle cx="85.333" cy="341.333" r="21.333" style="fill:#e76400"/><circle cx="288" cy="224" r="10.667" style="fill:#e76400"/><circle cx="224" cy="394.667" r="10.667" style="fill:#cc4900"/><circle cx="309.333" cy="416" r="53.333" style="fill:#cc4900"/><circle cx="128" cy="405.333" r="21.333" style="fill:#cc4900"/><ellipse cx="160" cy="202.667" rx="95.828" ry="44.292" transform="rotate(-45 160 202.667)" style="fill:#fdbc34"/></svg>